<svg width="383" height="130" viewBox="0 0 383 130" fill="none" xmlns="http://www.w3.org/2000/svg">
<path d="M58.4627 75.4044C60.2174 80.1018 67.5427 79.8844 76.8094 79.6084C86.2587 79.3284 98.0187 78.9791 101.048 84.6951C103.944 90.1578 98.9774 100.292 92.7094 105.971C86.9814 111.16 80.448 112.064 73.532 113.02C53.1707 115.836 39.14 113.283 35.0427 106.015C32.476 101.46 34.4454 95.9311 41.2067 80.0111C65.78 22.1404 71.024 19.8031 74.4934 18.2551C79.6054 15.9751 85.3854 15.0191 90.936 15.0191C97.7907 15.0191 104.297 16.4764 108.765 18.6964C112.035 20.3218 114.16 22.3258 114.596 24.1978C116.223 31.1698 97.3214 43.0551 83.52 51.7338C65.9867 62.7591 56.1787 69.2938 58.4627 75.4044ZM138.905 15.4418C134.517 5.92176 123.18 -0.00357056 110.152 0.000427246H48.54C45.3867 0.000427246 42.572 1.98043 41.5067 4.94843C27.82 43.0764 14.1334 81.2058 0.445376 119.335C-1.30129 124.203 2.30671 129.331 7.47871 129.331H78.108C83.4227 129.408 106.105 129.152 122.204 112.007C135.035 98.3418 142.657 75.0444 134.472 65.9031C126.633 57.1484 106.332 63.6538 105.755 60.5364C105.295 58.0618 117.651 55.4324 131.084 43.6324C137.205 38.2551 139.376 34.6391 140.407 30.8964C142.509 23.2604 139.453 16.6298 138.905 15.4418Z" fill="#004D4F"/>
<path d="M298.85 51.7336C285.048 43.0549 266.147 31.1696 267.774 24.1976C268.21 22.3256 270.335 20.3216 273.604 18.6962C278.072 16.4762 284.579 15.0189 291.434 15.0189C296.984 15.0189 302.764 15.9749 307.876 18.2549C311.346 19.8029 316.59 22.1402 341.163 80.0109C347.924 95.9309 349.894 101.46 347.327 106.015C343.23 113.283 329.199 115.836 308.838 113.02C301.922 112.064 295.388 111.16 289.66 105.971C283.392 100.292 278.426 90.1576 281.322 84.6949C284.351 78.9789 296.111 79.3282 305.56 79.6082C314.827 79.8842 322.152 80.1016 323.907 75.4042C326.191 69.2936 316.383 62.7589 298.85 51.7336ZM241.963 30.8962C242.994 34.6389 245.164 38.2549 251.286 43.6322C264.719 55.4322 277.075 58.0616 276.615 60.5362C276.038 63.6536 255.736 57.1482 247.898 65.9029C239.712 75.0442 247.335 98.3416 260.166 112.007C276.264 129.152 298.947 129.41 304.262 129.331H374.891C380.063 129.331 383.671 124.203 381.924 119.335C368.236 81.2056 354.55 43.0762 340.863 4.94824C339.798 1.98024 336.983 0.000244141 333.83 0.000244141H272.218C259.19 -0.00375366 247.852 5.92158 243.464 15.4416C242.916 16.6296 239.86 23.2602 241.963 30.8962Z" fill="#004D4F"/>
<path d="M212.368 75.8934C208.345 78.1907 197.453 66.0134 189.244 56.8361C180.51 47.0721 175.698 41.5267 176.285 34.0934C176.889 26.4254 183.161 17.6774 189.244 17.7027C204.309 17.7667 219.796 71.6521 212.368 75.8934ZM249.93 119.601L216.974 5.4014C216.052 2.20273 213.124 6.10352e-05 209.794 6.10352e-05H170.072C166.692 6.10352e-05 163.732 2.27072 162.854 5.53606L132.21 119.737C130.936 124.484 134.513 129.147 139.428 129.147H156.573C160.864 129.147 164.254 125.536 164.029 121.251C162.797 97.7534 166.061 80.4161 173.744 78.2227C182.534 75.7134 196.197 93.2881 203.22 102.32C209.537 110.445 213.968 118.295 217.076 124.837C218.321 127.459 220.942 129.147 223.842 129.147H242.75C247.724 129.147 251.309 124.38 249.93 119.601Z" fill="#004D4F"/>
</svg>
