<svg width="1500" height="694" viewBox="0 0 1500 694" fill="none" xmlns="http://www.w3.org/2000/svg">
<path fill-rule="evenodd" clip-rule="evenodd" d="M576.863 231.583C573.354 244.388 565.925 256.738 545.009 275.103C499.075 315.431 456.879 324.407 458.428 332.883C460.387 343.546 529.789 321.308 556.584 351.202C584.563 382.462 558.499 462.071 514.662 508.779C459.614 567.381 382.1 568.248 363.964 567.975H122.539C104.858 567.975 92.5548 550.475 98.5243 533.842C145.308 403.515 192.094 273.203 238.878 142.906C242.478 132.744 252.093 126 262.893 126H473.467C517.988 125.955 556.722 146.233 571.714 178.769C573.628 182.825 584.063 205.472 576.863 231.583ZM382.465 302.809C429.629 273.144 494.201 232.495 488.642 208.663C487.184 202.283 479.892 195.447 468.728 189.888C453.462 182.278 431.224 177.312 407.801 177.312C388.799 177.312 369.069 180.591 351.57 188.384C339.722 193.67 321.814 201.645 237.83 399.414C214.727 453.823 207.982 472.736 216.777 488.32C230.766 513.155 278.704 521.859 348.288 512.244C371.938 508.963 394.268 505.91 413.862 488.138C435.28 468.725 452.232 434.092 442.343 415.454C431.999 395.905 391.806 397.091 359.498 398.048C327.827 399.005 302.811 399.734 296.796 383.694C289.004 362.823 322.542 340.449 382.465 302.809Z" fill="#34BBC0"/>
<path fill-rule="evenodd" clip-rule="evenodd" d="M929.065 178.769C944.057 146.233 982.836 125.955 1027.36 126H1237.93C1248.68 126 1258.3 132.744 1261.95 142.906C1308.73 273.203 1355.52 403.515 1402.3 533.842C1408.27 550.475 1395.92 567.975 1378.24 567.975H1136.86C1118.72 568.248 1041.16 567.381 986.162 508.779C942.325 462.071 916.26 382.462 944.24 351.202C971.034 321.308 1040.39 343.546 1042.4 332.883C1043.94 324.407 1001.7 315.431 955.814 275.103C934.898 256.738 927.469 244.388 923.961 231.583C916.761 205.472 927.197 182.825 929.065 178.769ZM1204.03 383.694C1198.01 399.734 1172.95 399.005 1141.28 398.048C1109.02 397.091 1068.82 395.905 1058.48 415.454C1048.55 434.092 1065.54 468.725 1086.96 488.138C1106.56 505.91 1128.88 508.963 1152.49 512.244C1222.07 521.859 1270.06 513.155 1284.05 488.32C1292.8 472.736 1286.1 453.823 1262.99 399.414C1179.01 201.645 1161.06 193.67 1149.21 188.384C1131.76 180.591 1111.98 177.312 1093.02 177.312C1069.6 177.312 1047.36 182.278 1032.1 189.888C1020.93 195.447 1013.64 202.283 1012.18 208.663C1006.62 232.495 1071.19 273.144 1118.36 302.809C1178.28 340.449 1211.82 362.823 1204.03 383.694Z" fill="#34BBC0"/>
<path fill-rule="evenodd" clip-rule="evenodd" d="M926.649 567.336H862.033C852.099 567.336 843.167 561.594 838.884 552.617C828.266 530.288 813.137 503.449 791.537 475.697C767.522 444.802 720.86 384.741 690.785 393.308C664.537 400.827 653.371 460.067 657.609 540.359C658.384 555.033 646.766 567.336 632.092 567.336H573.536C556.721 567.336 544.509 551.433 548.838 535.211L653.6 144.911C656.562 133.746 666.679 126 678.253 126H814.003C825.396 126 835.374 133.52 838.563 144.457L951.166 534.755C955.906 551.068 943.646 567.336 926.649 567.336ZM743.781 186.47C723.001 186.379 701.54 216.272 699.489 242.475C697.484 267.902 713.933 286.859 743.781 320.215C771.806 351.612 809.035 393.216 822.797 385.378C848.179 370.842 795.274 186.698 743.781 186.47Z" fill="#34BBC0"/>
</svg>
