<svg width="150" height="150" viewBox="0 0 150 150" fill="none" xmlns="http://www.w3.org/2000/svg">
  <!-- Icona "maskable" per l'installazione PWA su Android: stesso monogramma del
       favicon, su sfondo brand (deepteal) e con padding nella safe-zone così il
       ritaglio a cerchio del launcher non taglia il logo. -->
  <rect width="150" height="150" fill="#143F36"/>
  <g transform="translate(75 75) scale(0.7) translate(-75 -75)">
    <path d="M36.8885 80.5333C37.7152 82.7466 41.1672 82.644 45.5339 82.5146C49.9872 82.3826 55.5285 82.2173 56.9565 84.912C58.3205 87.4853 55.9805 92.2613 53.0259 94.9373C50.3272 97.3826 47.2485 97.808 43.9899 98.2586C34.3952 99.5866 27.7832 98.3826 25.8525 94.9586C24.6432 92.812 25.5712 90.2066 28.7565 82.704C40.3365 55.4333 42.8072 54.332 44.4432 53.6026C46.8525 52.528 49.5752 52.0773 52.1912 52.0773C55.4219 52.0773 58.4872 52.764 60.5925 53.8106C62.1338 54.576 63.1352 55.5213 63.3405 56.4026C64.1072 59.688 55.2005 65.2893 48.6965 69.3786C40.4339 74.5746 35.8125 77.6533 36.8885 80.5333ZM93.4752 84.912C94.5818 82.8253 98.1552 82.4533 101.781 82.4533C102.835 82.4533 103.894 82.4853 104.898 82.5146C109.266 82.644 112.715 82.7466 113.543 80.5333C114.619 77.6533 109.998 74.5746 101.735 69.3786C95.2312 65.2893 86.3245 59.688 87.0912 56.4026C87.2965 55.5213 88.2978 54.576 89.8392 53.8106C93.6485 51.9173 100.603 51.2013 105.99 53.6026C107.623 54.332 110.094 55.4333 121.674 82.704C124.861 90.2066 125.789 92.812 124.579 94.9586C122.649 98.3826 116.037 99.5866 106.442 98.2586C103.182 97.808 100.105 97.3826 97.4045 94.9373C94.4512 92.2613 92.1112 87.4853 93.4752 84.912ZM121.367 46.8026C120.982 45.7213 119.958 45 118.81 45H88.0512C86.3365 45.036 81.6498 45.3693 77.8165 48.856C76.8032 49.776 76.0405 50.744 75.4672 51.6306C75.3152 51.8653 74.9898 51.884 74.8165 51.6653C74.1778 50.8613 73.3965 50.0226 72.4445 49.22C68.2912 45.7186 63.5125 45.12 61.2472 45H31.6459C30.4992 45 29.4765 45.72 29.0899 46.7986C22.4472 65.304 15.8045 83.808 9.16185 102.313C8.52719 104.081 9.83785 105.945 11.7179 105.945H46.1459C48.6499 105.983 59.3392 105.861 66.9258 97.7813C73.0338 91.2773 76.4859 80.6173 72.7072 76.056C69.3739 72.0346 61.0605 73.5093 61.0325 72.4053C61.0072 71.432 67.5032 72.0413 71.2712 67.916C74.6005 64.272 73.9725 58.9386 74.9618 58.948C75.9912 58.9573 75.1805 64.704 78.7059 68.3373C82.3605 72.1013 88.4872 71.344 88.4898 72.3C88.4925 73.364 80.8765 72.2386 77.7259 76.056C73.9579 80.6186 77.3872 91.2813 83.5058 97.7813C91.1778 105.931 102.062 105.965 104.615 105.907C115.955 105.913 127.295 105.92 138.635 105.927C140.514 105.927 141.826 104.067 141.194 102.297L121.367 46.8026Z" fill="#D9FF6F"/>
  </g>
</svg>
